<?xml version="1.0" encoding="utf-8"?>
<svg xmlns="http://www.w3.org/2000/svg" xmlns:xlink="http://www.w3.org/1999/xlink" version= "1.1" width="500px" height="500px" viewBox="290 908 500 500">
<g id="layer1">
<g style="fill:rgb(22,132,61); fill-opacity:1.0; stroke-linejoin: miter">
<path d="M528.747,1326.3583L560.74774,1324.205L566.62427,1276.1559L562.5532,1219.7573L543.10394,1160.9362L523.6498,1124.3344L527.9562,1163.2866L532.41675,1197.8306L532.7551,1223.4038L532.06104,1290.9829L528.747,1326.3583"/>
</g>
<g style="fill:rgb(22,132,61); fill-opacity:1.0; stroke-linejoin: miter">
<path d="M522.68335,1125.0936L540.48566,1124.1259L625.8666,1119.1619L717.40393,1092.8281L754.6116,1047.1365L760.74915,984.962L751.1897,945.91675L668.5623,939.6908L594.6014,968.2826L550.1113,1031.905L518.7226,1121.9338L467.14813,1076.1323L417.5767,1043.1338L384.27737,1043.5437L359.78693,1077.3796L339.73923,1132.226L328.53534,1230.4921L371.91208,1185.169L413.0108,1147.5406L450.1584,1126.2244L485.43384,1121.2783L522.68335,1125.0936"/>
</g>
<g style="fill:rgb(0,0,0); fill-opacity:1.0; stroke-linejoin: miter">
<path d="M524.0505,1124.296L523.98364,1124.3055L523.55273,1124.4252Q525.5211,1130.2645,526.7049,1133.3608L541.29535,1169.8746Q543.4378,1175.2505,545.3314,1180.576Q552.5788,1200.7966,556.0967,1214.0771Q562.22565,1237.3384,562.07184,1263.2607Q561.9895,1277.0446,560.7961,1288.241Q560.2687,1294.0381,559.52826,1300.4462Q558.12286,1312.291,556.8042,1321.2136Q556.72375,1321.7611,556.8249,1322.2201Q551.7234,1321.6136,531.98926,1323.4688Q535.33905,1283.4979,536.1401,1261.629Q537.17303,1234.054,535.9134,1210.493Q534.70355,1187.4507,529.85645,1157.0485Q526.8029,1137.8984,524.6709,1129.1552Q523.96014,1126.2408,523.35187,1124.4825L522.1962,1124.6653Q522.24054,1130.5647,522.72705,1138.267Q525.77795,1178.7126,526.6562,1193.8651Q528.10876,1219.1736,528.20215,1230.8319Q528.4046,1249.8436,527.30853,1271.5836Q526.482,1288.3394,523.76306,1321.41Q523.6913,1323.684,523.8396,1324.1687Q525.9627,1329.993,531.2819,1330.9695Q532.50964,1331.4559,536.9152,1331.2333L556.41595,1329.9965Q563.18555,1329.2693,564.0035,1325.0443Q565.21356,1321.2913,565.6331,1318.47Q567.16034,1307.658,568.206,1298.2363Q572.9521,1257.4673,567.8123,1229.2992Q563.688,1204.4661,554.07465,1182.2094Q539.4008,1147.1576,524.0505,1124.296 Z"/>
</g>
<g style="fill:rgb(0,0,0); fill-opacity:1.0; stroke-linejoin: miter">
<path d="M722.1495,988.92694L718.3094,989.81116Q710.26685,990.572,666.11334,1010.1494Q649.7875,1017.52545,626.0306,1033.3525Q600.202,1051.0858,574.4155,1073.6343Q545.36053,1100.3174,539.1541,1106.8656Q521.59265,1124.7269,524.6251,1123.5267Q526.51,1122.5778,538.40076,1113.309L605.70703,1058.5878Q621.9003,1046.1315,631.5659,1039.6714Q642.1262,1032.4038,668.63324,1017.19135Q680.6423,1010.5782,715.8174,992.9212Q720.513,990.34753,722.1495,988.92694 Z"/>
</g>
<g style="fill:rgb(0,0,0); fill-opacity:1.0; stroke-linejoin: miter">
</g>
<g style="fill:rgb(0,0,0); fill-opacity:1.0; stroke-linejoin: miter">
</g>
<g style="fill:rgb(0,0,0); fill-opacity:1.0; stroke-linejoin: miter">
<path d="M522.3037,1123.0677L522.3037,1123.0682Q522.3037,1123.0696,522.3037,1123.0677"/>
</g>
<g style="fill:rgb(0,0,0); fill-opacity:1.0; stroke-linejoin: miter">
<path d="M434.86053,1094.1658L433.73138,1094.1746Q413.8046,1094.6157,400.0502,1106.3152Q392.2927,1113.2405,385.47812,1121.7162Q377.35214,1133.2234,372.60593,1144.059L375.42548,1141.4487Q383.64874,1131.1967,391.27704,1122.7458Q396.94345,1116.8774,400.60065,1113.9678Q412.16583,1105.1323,423.2706,1103.1758Q437.13467,1100.8877,459.15372,1105.5087Q463.70264,1106.3861,475.6425,1109.6288L513.6736,1121.1726L519.5103,1122.5947Q519.35376,1122.0845,519.64996,1121.6316L518.57837,1120.977L514.3271,1118.6832L506.24026,1114.8552Q492.26035,1108.3584,474.20892,1102.074Q458.65094,1097.089,452.86673,1096.0603Q444.24103,1094.3148,434.86053,1094.1658 Z"/>
</g>
<g style="fill:rgb(0,0,0); fill-opacity:1.0; stroke-linejoin: miter">
</g>
<g style="fill:rgb(0,0,0); fill-opacity:1.0; stroke-linejoin: miter">
<path d="M372.59845,1144.0662L372.5441,1144.127L372.49854,1144.1805L372.4618,1144.227L372.4339,1144.2664L372.41483,1144.2985L372.40454,1144.3235L372.4031,1144.3414L372.41046,1144.3522L372.42667,1144.3557L372.43515,1144.3552Q372.44547,1144.3547,372.47467,1144.3453L372.6022,1144.0662L372.59845,1144.0671 Z"/>
</g>
<g style="fill:rgb(0,0,0); fill-opacity:1.0; stroke-linejoin: miter">
<path d="M515.3962,1163.0223L515.466,1162.9982L515.6754,1162.926L515.3962,1163.0223"/>
</g>
<g style="fill:rgb(0,0,0); fill-opacity:1.0; stroke-linejoin: miter">
<path d="M519.57916,1122.2943L519.5413,1122.2977L519.5035,1122.3008Q519.50385,1122.3013,519.504,1122.3018L519.5416,1122.2981L519.57916,1122.2943"/>
</g>
<g style="fill:rgb(0,0,0); fill-opacity:1.0; stroke-linejoin: miter">
<path d="M690.1528,934.24304L689.3405,934.2449Q649.79016,934.7096,629.70844,941.8144Q618.0679,945.3827,608.09534,950.64264Q598.1228,955.90265,589.8181,962.8544L581.93054,970.229Q539.0,1017.55084,518.8803,1122.4219L519.7162,1122.2163L524.47174,1111.7891Q544.35645,1061.0023,554.2688,1038.9941Q567.7809,1011.34607,579.98047,994.0948Q589.3446,980.4241,601.28894,971.0227Q607.2611,966.3222,613.87836,962.68896L620.65686,959.3225Q627.59656,956.22296,635.1814,954.1909Q683.51746,942.83594,749.8489,951.15393Q755.2665,999.0793,753.5427,1021.0441Q752.4456,1043.5817,737.9175,1066.2755Q727.34937,1083.0837,691.4793,1095.778Q673.31305,1101.7201,640.1338,1107.8379Q626.0838,1110.6201,542.352,1121.0547L520.8743,1124.748Q525.44226,1126.4216,553.74567,1126.3068Q619.81476,1126.371,676.2648,1114.3967Q729.85864,1100.9833,749.27466,1073.4895Q755.6783,1064.5603,759.8331,1053.2212L763.4258,1041.2797Q766.4561,1028.7358,767.2379,1013.782Q768.8012,983.8745,761.3696,944.32806Q757.9011,939.1864,751.73413,938.02875Q715.7967,934.687,690.1528,934.24304 Z"/>
</g>
<g style="fill:rgb(0,0,0); fill-opacity:1.0; stroke-linejoin: miter">
</g>
<g style="fill:rgb(0,0,0); fill-opacity:1.0; stroke-linejoin: miter">
</g>
<g style="fill:rgb(0,0,0); fill-opacity:1.0; stroke-linejoin: miter">
<path d="M401.45465,1033.8511L401.0274,1033.854Q388.4239,1034.3054,383.67526,1037.2975Q377.14536,1040.344,371.34482,1046.1482Q357.87064,1060.9633,347.9929,1088.2504Q341.54248,1107.1859,335.4086,1135.639Q324.78308,1188.704,320.5684,1221.6436Q319.81442,1231.0948,322.4221,1232.817Q324.8732,1235.928,330.05966,1236.8662Q333.24393,1236.5319,334.46442,1235.4324Q385.18164,1180.4641,404.77472,1163.7627Q418.57318,1151.174,437.6514,1139.0944Q453.972,1129.5696,472.42404,1126.285Q487.91852,1123.6514,521.89526,1124.9082Q498.268,1117.1149,473.17346,1118.0138Q460.00586,1119.2427,456.41165,1120.2151Q446.37366,1122.3248,433.86325,1128.263Q410.62762,1140.5939,385.0041,1163.2776Q378.1768,1168.9167,335.0753,1215.1919Q347.2725,1136.2554,357.2341,1103.4882Q370.81653,1059.709,387.80698,1050.2747Q403.00024,1042.1859,431.12347,1057.6882Q441.22656,1063.1765,458.76837,1075.7947Q472.60995,1086.1553,512.35956,1118.4012Q518.41656,1123.4281,520.2555,1122.6962Q486.1531,1082.9465,455.78625,1059.5414Q420.5996,1033.4095,401.45465,1033.8511 Z"/>
</g>
<g style="fill:rgb(124,88,0); fill-opacity:1.0; stroke-linejoin: miter">
<path d="M415.2364,1337.4673L421.08334,1334.0608Q444.91458,1319.7329,465.1994,1311.0101Q477.2236,1306.5918,479.061,1306.605Q483.04773,1305.6494,489.11005,1305.5864Q494.69055,1305.4132,502.93488,1308.2104L507.9013,1310.3477Q521.2608,1317.6608,526.038,1319.7158Q532.6612,1322.5193,534.8247,1322.6975Q536.13446,1323.0312,538.9019,1322.7828Q554.4015,1319.1385,558.7491,1318.663Q568.78156,1317.2662,575.1849,1316.9813Q580.7245,1316.497,597.5716,1316.5587Q612.5716,1316.7554,625.2068,1317.8948Q635.95355,1318.8633,642.2504,1320.7261Q645.3572,1321.4098,656.6444,1326.6454L663.2245,1328.9431Q671.76117,1331.6371,689.022,1335.929L610.3633,1350.4698L555.932,1350.9258L415.2364,1337.4673"/>
</g>
</g>
</svg>